<mxfile host="app.diagrams.net" modified="2023-04-15T15:34:36.159Z" agent="Mozilla/5.0 (Windows NT 10.0; Win64; x64) AppleWebKit/537.36 (KHTML, like Gecko) Chrome/112.0.0.0 Safari/537.36 Edg/112.0.1722.46" etag="OYJHUy-2mc8-E0P3K65s" version="21.1.8" type="device">
  <diagram name="Page-1" id="2YBvvXClWsGukQMizWep">
    <mxGraphModel dx="1112" dy="728" grid="1" gridSize="10" guides="1" tooltips="1" connect="1" arrows="1" fold="1" page="1" pageScale="1" pageWidth="850" pageHeight="1100" math="0" shadow="0">
      <root>
        <mxCell id="0" />
        <mxCell id="1" parent="0" />
        <mxCell id="9vsGAAIWwJM1KQ0hakGt-1" value="Buyer" style="shape=umlLifeline;perimeter=lifelinePerimeter;whiteSpace=wrap;html=1;container=0;dropTarget=0;collapsible=0;recursiveResize=0;outlineConnect=0;portConstraint=eastwest;newEdgeStyle={&quot;edgeStyle&quot;:&quot;elbowEdgeStyle&quot;,&quot;elbow&quot;:&quot;vertical&quot;,&quot;curved&quot;:0,&quot;rounded&quot;:0};" vertex="1" parent="1">
          <mxGeometry x="40" y="40" width="100" height="520" as="geometry" />
        </mxCell>
        <mxCell id="9vsGAAIWwJM1KQ0hakGt-2" value="" style="html=1;points=[];perimeter=orthogonalPerimeter;outlineConnect=0;targetShapes=umlLifeline;portConstraint=eastwest;newEdgeStyle={&quot;edgeStyle&quot;:&quot;elbowEdgeStyle&quot;,&quot;elbow&quot;:&quot;vertical&quot;,&quot;curved&quot;:0,&quot;rounded&quot;:0};" vertex="1" parent="9vsGAAIWwJM1KQ0hakGt-1">
          <mxGeometry x="45" y="40" width="10" height="480" as="geometry" />
        </mxCell>
        <mxCell id="9vsGAAIWwJM1KQ0hakGt-3" value="Buyer menu" style="shape=umlLifeline;perimeter=lifelinePerimeter;whiteSpace=wrap;html=1;container=0;dropTarget=0;collapsible=0;recursiveResize=0;outlineConnect=0;portConstraint=eastwest;newEdgeStyle={&quot;edgeStyle&quot;:&quot;elbowEdgeStyle&quot;,&quot;elbow&quot;:&quot;vertical&quot;,&quot;curved&quot;:0,&quot;rounded&quot;:0};" vertex="1" parent="1">
          <mxGeometry x="220" y="40" width="100" height="520" as="geometry" />
        </mxCell>
        <mxCell id="9vsGAAIWwJM1KQ0hakGt-4" value="" style="html=1;points=[];perimeter=orthogonalPerimeter;outlineConnect=0;targetShapes=umlLifeline;portConstraint=eastwest;newEdgeStyle={&quot;edgeStyle&quot;:&quot;elbowEdgeStyle&quot;,&quot;elbow&quot;:&quot;vertical&quot;,&quot;curved&quot;:0,&quot;rounded&quot;:0};" vertex="1" parent="9vsGAAIWwJM1KQ0hakGt-3">
          <mxGeometry x="45" y="80" width="10" height="130" as="geometry" />
        </mxCell>
        <mxCell id="9vsGAAIWwJM1KQ0hakGt-5" value="" style="endArrow=classic;html=1;rounded=0;" edge="1" parent="9vsGAAIWwJM1KQ0hakGt-3" source="9vsGAAIWwJM1KQ0hakGt-4" target="9vsGAAIWwJM1KQ0hakGt-4">
          <mxGeometry width="50" height="50" relative="1" as="geometry">
            <mxPoint x="70" y="120" as="sourcePoint" />
            <mxPoint x="120" y="70" as="targetPoint" />
            <Array as="points">
              <mxPoint x="75" y="90" />
              <mxPoint x="75" y="120" />
            </Array>
          </mxGeometry>
        </mxCell>
        <mxCell id="9vsGAAIWwJM1KQ0hakGt-7" value="open" style="html=1;verticalAlign=bottom;endArrow=block;edgeStyle=elbowEdgeStyle;elbow=vertical;curved=0;rounded=0;" edge="1" parent="1" source="9vsGAAIWwJM1KQ0hakGt-2" target="9vsGAAIWwJM1KQ0hakGt-4">
          <mxGeometry relative="1" as="geometry">
            <mxPoint x="195" y="130" as="sourcePoint" />
            <Array as="points">
              <mxPoint x="180" y="120" />
            </Array>
          </mxGeometry>
        </mxCell>
        <mxCell id="9vsGAAIWwJM1KQ0hakGt-8" value="show variants" style="text;html=1;align=center;verticalAlign=middle;resizable=0;points=[];autosize=1;strokeColor=none;fillColor=none;" vertex="1" parent="1">
          <mxGeometry x="290" y="130" width="100" height="30" as="geometry" />
        </mxCell>
        <mxCell id="9vsGAAIWwJM1KQ0hakGt-9" value="" style="endArrow=classic;html=1;rounded=0;" edge="1" parent="1" source="9vsGAAIWwJM1KQ0hakGt-2" target="9vsGAAIWwJM1KQ0hakGt-4">
          <mxGeometry relative="1" as="geometry">
            <mxPoint x="150" y="189.57999999999998" as="sourcePoint" />
            <mxPoint x="250" y="189.57999999999998" as="targetPoint" />
            <Array as="points">
              <mxPoint x="220" y="190" />
            </Array>
          </mxGeometry>
        </mxCell>
        <mxCell id="9vsGAAIWwJM1KQ0hakGt-10" value="find action" style="edgeLabel;resizable=0;html=1;align=center;verticalAlign=middle;" connectable="0" vertex="1" parent="9vsGAAIWwJM1KQ0hakGt-9">
          <mxGeometry relative="1" as="geometry">
            <mxPoint y="-10" as="offset" />
          </mxGeometry>
        </mxCell>
        <mxCell id="9vsGAAIWwJM1KQ0hakGt-12" value="Action" style="shape=umlLifeline;perimeter=lifelinePerimeter;whiteSpace=wrap;html=1;container=0;dropTarget=0;collapsible=0;recursiveResize=0;outlineConnect=0;portConstraint=eastwest;newEdgeStyle={&quot;edgeStyle&quot;:&quot;elbowEdgeStyle&quot;,&quot;elbow&quot;:&quot;vertical&quot;,&quot;curved&quot;:0,&quot;rounded&quot;:0};" vertex="1" parent="1">
          <mxGeometry x="640" y="440" width="100" height="100" as="geometry" />
        </mxCell>
        <mxCell id="9vsGAAIWwJM1KQ0hakGt-13" value="" style="html=1;points=[];perimeter=orthogonalPerimeter;outlineConnect=0;targetShapes=umlLifeline;portConstraint=eastwest;newEdgeStyle={&quot;edgeStyle&quot;:&quot;elbowEdgeStyle&quot;,&quot;elbow&quot;:&quot;vertical&quot;,&quot;curved&quot;:0,&quot;rounded&quot;:0};" vertex="1" parent="9vsGAAIWwJM1KQ0hakGt-12">
          <mxGeometry x="45" y="50" width="10" height="40" as="geometry" />
        </mxCell>
        <mxCell id="9vsGAAIWwJM1KQ0hakGt-14" value="" style="endArrow=classic;html=1;rounded=0;" edge="1" parent="9vsGAAIWwJM1KQ0hakGt-12" source="9vsGAAIWwJM1KQ0hakGt-13" target="9vsGAAIWwJM1KQ0hakGt-13">
          <mxGeometry width="50" height="50" relative="1" as="geometry">
            <mxPoint x="140" y="240" as="sourcePoint" />
            <mxPoint x="190" y="190" as="targetPoint" />
          </mxGeometry>
        </mxCell>
        <mxCell id="9vsGAAIWwJM1KQ0hakGt-19" value="show action details" style="text;html=1;align=center;verticalAlign=middle;resizable=0;points=[];autosize=1;strokeColor=none;fillColor=none;" vertex="1" parent="1">
          <mxGeometry x="710" y="496" width="120" height="30" as="geometry" />
        </mxCell>
        <mxCell id="9vsGAAIWwJM1KQ0hakGt-21" value="Find action" style="shape=umlLifeline;perimeter=lifelinePerimeter;whiteSpace=wrap;html=1;container=0;dropTarget=0;collapsible=0;recursiveResize=0;outlineConnect=0;portConstraint=eastwest;newEdgeStyle={&quot;edgeStyle&quot;:&quot;elbowEdgeStyle&quot;,&quot;elbow&quot;:&quot;vertical&quot;,&quot;curved&quot;:0,&quot;rounded&quot;:0};" vertex="1" parent="1">
          <mxGeometry x="410" y="150" width="100" height="370" as="geometry" />
        </mxCell>
        <mxCell id="9vsGAAIWwJM1KQ0hakGt-22" value="" style="html=1;points=[];perimeter=orthogonalPerimeter;outlineConnect=0;targetShapes=umlLifeline;portConstraint=eastwest;newEdgeStyle={&quot;edgeStyle&quot;:&quot;elbowEdgeStyle&quot;,&quot;elbow&quot;:&quot;vertical&quot;,&quot;curved&quot;:0,&quot;rounded&quot;:0};" vertex="1" parent="9vsGAAIWwJM1KQ0hakGt-21">
          <mxGeometry x="45" y="80" width="10" height="270" as="geometry" />
        </mxCell>
        <mxCell id="9vsGAAIWwJM1KQ0hakGt-53" value="" style="endArrow=classic;html=1;rounded=0;" edge="1" parent="9vsGAAIWwJM1KQ0hakGt-21" source="9vsGAAIWwJM1KQ0hakGt-22" target="9vsGAAIWwJM1KQ0hakGt-22">
          <mxGeometry width="50" height="50" relative="1" as="geometry">
            <mxPoint x="-190" y="270" as="sourcePoint" />
            <mxPoint x="-140" y="220" as="targetPoint" />
            <Array as="points">
              <mxPoint x="70" y="270" />
              <mxPoint x="70" y="280" />
              <mxPoint x="70" y="290" />
            </Array>
          </mxGeometry>
        </mxCell>
        <mxCell id="9vsGAAIWwJM1KQ0hakGt-24" value="" style="endArrow=classic;html=1;rounded=0;" edge="1" parent="1" source="9vsGAAIWwJM1KQ0hakGt-4" target="9vsGAAIWwJM1KQ0hakGt-22">
          <mxGeometry relative="1" as="geometry">
            <mxPoint x="370" y="270" as="sourcePoint" />
            <mxPoint x="470" y="270" as="targetPoint" />
            <Array as="points">
              <mxPoint x="390" y="240" />
            </Array>
          </mxGeometry>
        </mxCell>
        <mxCell id="9vsGAAIWwJM1KQ0hakGt-25" value="open" style="edgeLabel;resizable=0;html=1;align=center;verticalAlign=middle;" connectable="0" vertex="1" parent="9vsGAAIWwJM1KQ0hakGt-24">
          <mxGeometry relative="1" as="geometry">
            <mxPoint y="-10" as="offset" />
          </mxGeometry>
        </mxCell>
        <mxCell id="9vsGAAIWwJM1KQ0hakGt-35" value="loop" style="shape=umlFrame;whiteSpace=wrap;html=1;pointerEvents=0;" vertex="1" parent="1">
          <mxGeometry x="20" y="260" width="510" height="220" as="geometry" />
        </mxCell>
        <mxCell id="9vsGAAIWwJM1KQ0hakGt-38" value="check false" style="text;html=1;align=center;verticalAlign=middle;resizable=0;points=[];autosize=1;strokeColor=none;fillColor=none;" vertex="1" parent="1">
          <mxGeometry x="10" y="288" width="80" height="30" as="geometry" />
        </mxCell>
        <mxCell id="9vsGAAIWwJM1KQ0hakGt-39" value="" style="endArrow=classic;html=1;rounded=0;" edge="1" parent="1" source="9vsGAAIWwJM1KQ0hakGt-22" target="9vsGAAIWwJM1KQ0hakGt-13">
          <mxGeometry relative="1" as="geometry">
            <mxPoint x="500" y="390" as="sourcePoint" />
            <mxPoint x="600" y="390" as="targetPoint" />
          </mxGeometry>
        </mxCell>
        <mxCell id="9vsGAAIWwJM1KQ0hakGt-40" value="open" style="edgeLabel;resizable=0;html=1;align=center;verticalAlign=middle;" connectable="0" vertex="1" parent="9vsGAAIWwJM1KQ0hakGt-39">
          <mxGeometry relative="1" as="geometry">
            <mxPoint y="-10" as="offset" />
          </mxGeometry>
        </mxCell>
        <mxCell id="9vsGAAIWwJM1KQ0hakGt-41" value="" style="shape=image;html=1;verticalAlign=top;verticalLabelPosition=bottom;labelBackgroundColor=#ffffff;imageAspect=0;aspect=fixed;image=https://cdn3.iconfinder.com/data/icons/user-interface-169/32/cross-128.png" vertex="1" parent="1">
          <mxGeometry x="436" y="502" width="48" height="48" as="geometry" />
        </mxCell>
        <mxCell id="9vsGAAIWwJM1KQ0hakGt-42" value="alt" style="shape=umlFrame;whiteSpace=wrap;html=1;pointerEvents=0;" vertex="1" parent="1">
          <mxGeometry x="20" y="318" width="510" height="92" as="geometry" />
        </mxCell>
        <mxCell id="9vsGAAIWwJM1KQ0hakGt-43" value="" style="endArrow=classic;html=1;rounded=0;" edge="1" parent="1" source="9vsGAAIWwJM1KQ0hakGt-2" target="9vsGAAIWwJM1KQ0hakGt-22">
          <mxGeometry relative="1" as="geometry">
            <mxPoint x="300" y="390" as="sourcePoint" />
            <mxPoint x="400" y="390" as="targetPoint" />
            <Array as="points">
              <mxPoint x="370" y="340" />
            </Array>
          </mxGeometry>
        </mxCell>
        <mxCell id="9vsGAAIWwJM1KQ0hakGt-44" value="input name" style="edgeLabel;resizable=0;html=1;align=center;verticalAlign=middle;" connectable="0" vertex="1" parent="9vsGAAIWwJM1KQ0hakGt-43">
          <mxGeometry relative="1" as="geometry">
            <mxPoint x="25" as="offset" />
          </mxGeometry>
        </mxCell>
        <mxCell id="9vsGAAIWwJM1KQ0hakGt-47" value="" style="endArrow=none;dashed=1;html=1;rounded=0;" edge="1" parent="1">
          <mxGeometry width="50" height="50" relative="1" as="geometry">
            <mxPoint y="370" as="sourcePoint" />
            <mxPoint x="550" y="370" as="targetPoint" />
          </mxGeometry>
        </mxCell>
        <mxCell id="9vsGAAIWwJM1KQ0hakGt-48" value="" style="endArrow=classic;html=1;rounded=0;" edge="1" parent="1" source="9vsGAAIWwJM1KQ0hakGt-2" target="9vsGAAIWwJM1KQ0hakGt-22">
          <mxGeometry relative="1" as="geometry">
            <mxPoint x="290" y="390" as="sourcePoint" />
            <mxPoint x="390" y="390" as="targetPoint" />
            <Array as="points">
              <mxPoint x="340" y="390" />
              <mxPoint x="420" y="390" />
            </Array>
          </mxGeometry>
        </mxCell>
        <mxCell id="9vsGAAIWwJM1KQ0hakGt-49" value="input date" style="edgeLabel;resizable=0;html=1;align=center;verticalAlign=middle;" connectable="0" vertex="1" parent="9vsGAAIWwJM1KQ0hakGt-48">
          <mxGeometry relative="1" as="geometry">
            <mxPoint x="25" as="offset" />
          </mxGeometry>
        </mxCell>
        <mxCell id="9vsGAAIWwJM1KQ0hakGt-51" value="[else]" style="text;html=1;align=center;verticalAlign=middle;resizable=0;points=[];autosize=1;strokeColor=none;fillColor=none;" vertex="1" parent="1">
          <mxGeometry x="20" y="370" width="50" height="30" as="geometry" />
        </mxCell>
        <mxCell id="9vsGAAIWwJM1KQ0hakGt-52" value="[by name]" style="text;html=1;align=center;verticalAlign=middle;resizable=0;points=[];autosize=1;strokeColor=none;fillColor=none;" vertex="1" parent="1">
          <mxGeometry x="10" y="340" width="80" height="30" as="geometry" />
        </mxCell>
        <mxCell id="9vsGAAIWwJM1KQ0hakGt-54" value="to check" style="text;html=1;align=center;verticalAlign=middle;resizable=0;points=[];autosize=1;strokeColor=none;fillColor=none;" vertex="1" parent="1">
          <mxGeometry x="470" y="410" width="70" height="30" as="geometry" />
        </mxCell>
        <mxCell id="9vsGAAIWwJM1KQ0hakGt-56" value="" style="endArrow=classic;html=1;rounded=0;" edge="1" parent="1" source="9vsGAAIWwJM1KQ0hakGt-22" target="9vsGAAIWwJM1KQ0hakGt-2">
          <mxGeometry relative="1" as="geometry">
            <mxPoint x="150" y="460" as="sourcePoint" />
            <mxPoint x="250" y="460" as="targetPoint" />
            <Array as="points">
              <mxPoint x="220" y="460" />
            </Array>
          </mxGeometry>
        </mxCell>
        <mxCell id="9vsGAAIWwJM1KQ0hakGt-57" value="check false" style="edgeLabel;resizable=0;html=1;align=center;verticalAlign=middle;" connectable="0" vertex="1" parent="9vsGAAIWwJM1KQ0hakGt-56">
          <mxGeometry relative="1" as="geometry" />
        </mxCell>
        <mxCell id="9vsGAAIWwJM1KQ0hakGt-58" value="BUYER FIND ACTION" style="text;html=1;align=center;verticalAlign=middle;resizable=0;points=[];autosize=1;strokeColor=none;fillColor=none;strokeWidth=1;fontStyle=1" vertex="1" parent="1">
          <mxGeometry y="10" width="150" height="30" as="geometry" />
        </mxCell>
      </root>
    </mxGraphModel>
  </diagram>
</mxfile>
